<svg width="21" height="27" viewBox="0 0 21 27" fill="none" xmlns="http://www.w3.org/2000/svg">
<path d="M20.3626 7.23758V7.21174C20.3482 7.13421 20.3224 7.06099 20.285 6.99064C20.2779 6.97629 20.2664 6.96193 20.2592 6.94326C20.2219 6.87722 20.1817 6.81836 20.13 6.7638C20.1257 6.75949 20.1228 6.75231 20.1185 6.74944L13.8159 0.265607H13.8116C13.757 0.211049 13.691 0.162235 13.6206 0.122037C13.6062 0.110551 13.5876 0.103373 13.5689 0.0961937C13.5029 0.0631725 13.4325 0.0330242 13.3564 0.0186643H13.3493C13.2904 0.00717858 13.2287 0 13.1655 0H1.80471C0.808338 0 0 0.808301 0 1.80471V24.7949C0 25.7913 0.808302 26.5996 1.80471 26.5996H18.5724C19.5688 26.5996 20.3771 25.7913 20.3771 24.7949V7.39101C20.3771 7.33932 20.3699 7.29194 20.3628 7.24456L20.3626 7.23758ZM14.0743 6.48813V3.13573L17.3276 6.48383L14.0743 6.49101V6.48813ZM1.81596 24.7878L1.80878 1.80489H12.2621V6.48372C12.2621 7.48009 13.0704 8.28843 14.0668 8.28843H18.5648L18.572 24.7761L1.81566 24.7832L1.81596 24.7878Z" fill="#411F99"/>
<path d="M14.6765 11.5449H5.70036C5.20072 11.5449 4.79297 11.9498 4.79297 12.4523C4.79297 12.9563 5.19785 13.3597 5.70036 13.3597H14.6765C15.1761 13.3597 15.5839 12.9548 15.5839 12.4523C15.5839 11.9484 15.179 11.5449 14.6765 11.5449Z" fill="#411F99"/>
<path d="M14.6765 15.6289H5.70036C5.20072 15.6289 4.79297 16.0338 4.79297 16.5363C4.79297 17.0402 5.19785 17.4437 5.70036 17.4437H14.6765C15.1761 17.4437 15.5839 17.0388 15.5839 16.5363C15.5839 16.0324 15.179 15.6289 14.6765 15.6289Z" fill="#411F99"/>
<path d="M14.6765 19.7148H5.70036C5.20072 19.7148 4.79297 20.1197 4.79297 20.6222C4.79297 21.1262 5.19785 21.5296 5.70036 21.5296H14.6765C15.1761 21.5296 15.5839 21.1247 15.5839 20.6222C15.5839 20.1183 15.179 19.7148 14.6765 19.7148Z" fill="#411F99"/>
</svg>
