<svg width="26" height="16" viewBox="0 0 26 16" fill="none" xmlns="http://www.w3.org/2000/svg">
<path fill-rule="evenodd" clip-rule="evenodd" d="M13.0009 5.46123e-08C7.65379 0.000289074 2.71964 2.88673 0.0982333 7.54717C0.03388 7.66156 5.06748e-05 7.7906 5.68874e-08 7.92185C-5.05611e-05 8.0531 0.0336792 8.18216 0.0979442 8.2966C2.71675 12.9608 7.65176 15.8507 13.0007 15.853C13.0004 15.853 13.0009 15.853 13.0007 15.853C18.3478 15.851 23.2822 12.9628 25.9019 8.30122C25.9662 8.1868 26 8.05776 26 7.92651C26 7.79526 25.9662 7.66621 25.9019 7.5518C23.2822 2.8902 18.3481 0.00231221 13.0009 5.46123e-08C13.0011 -1.82041e-08 13.0007 -1.82041e-08 13.0009 5.46123e-08ZM13.0007 1.52949C17.6533 1.53123 21.9507 3.96506 24.3496 7.92665C21.9507 11.888 17.6536 14.3215 13.0015 14.3235C8.34743 14.3218 4.04884 11.8862 1.65027 7.92232C4.05058 3.96217 8.34859 1.52978 13.0007 1.52949ZM13.0001 3.29049C10.4486 3.29049 8.36391 5.37519 8.36391 7.92665C8.36391 10.4778 10.4486 12.5625 13.0001 12.5625C15.5512 12.5625 17.6359 10.4778 17.6359 7.92665C17.6359 5.37519 15.5512 3.29049 13.0001 3.29049ZM13.0001 4.81998C14.7247 4.81998 16.1065 6.20178 16.1065 7.92665C16.1065 9.65123 14.7247 11.033 13.0001 11.033C11.2752 11.033 9.8934 9.65123 9.8934 7.92665C9.8934 6.20178 11.2752 4.81998 13.0001 4.81998Z" fill="#411F99"/>
</svg>
