<svg width="35" height="35" viewBox="0 0 35 35" fill="none" xmlns="http://www.w3.org/2000/svg">
<circle cx="17.5" cy="17.5" r="16.5" stroke="#1C854C" stroke-width="2"/>
<path d="M10.0582 18.0521C9.57724 17.9582 9.11045 18.2722 9.01659 18.7532C8.92273 19.2342 9.23665 19.701 9.71766 19.7948C10.2445 19.8986 10.8813 20.4187 11.5251 21.1483C12.373 22.1092 13.1836 23.4022 13.7958 24.6451L13.7936 24.6462C14.0101 25.0863 14.5434 25.2676 14.9835 25.0511C15.146 24.9711 15.2733 24.8481 15.3582 24.7023C16.7615 22.4246 18.3744 20.2168 20.2352 18.0958C22.108 15.961 24.2404 13.9008 26.6728 11.9291C27.0525 11.6205 27.1101 11.0623 26.8015 10.6826C26.4929 10.3029 25.9348 10.2454 25.5551 10.5539C23.0452 12.5882 20.8413 14.7181 18.902 16.929C17.3122 18.7414 15.9033 20.6022 14.6522 22.5035C14.1125 21.5891 13.4947 20.7046 12.8512 19.975C11.9649 18.9711 11.0004 18.238 10.0582 18.0521Z" fill="#1C854C"/>
</svg>
