<svg width="24" height="27" viewBox="0 0 24 27" fill="none" xmlns="http://www.w3.org/2000/svg">
<path d="M11.9969 13.5C13.3319 13.5 14.637 13.1041 15.747 12.3624C16.857 11.6207 17.7222 10.5665 18.2331 9.33312C18.744 8.09972 18.8776 6.74252 18.6172 5.43314C18.3567 4.12377 17.7139 2.92104 16.7699 1.97703C15.8259 1.03303 14.6231 0.390153 13.3137 0.129702C12.0044 -0.130748 10.6472 0.00292466 9.41377 0.513816C8.18037 1.02471 7.12617 1.88987 6.38447 2.9999C5.64277 4.10994 5.24689 5.41498 5.24689 6.75C5.24689 8.54022 5.95805 10.2571 7.22392 11.523C8.48979 12.7888 10.2067 13.5 11.9969 13.5ZM11.9969 1.92857C12.9505 1.92857 13.8827 2.21135 14.6755 2.74113C15.4684 3.27092 16.0864 4.02392 16.4513 4.90492C16.8162 5.78592 16.9117 6.75535 16.7257 7.69062C16.5396 8.62588 16.0804 9.48498 15.4062 10.1593C14.7319 10.8336 13.8728 11.2928 12.9375 11.4788C12.0022 11.6648 11.0328 11.5693 10.1518 11.2044C9.27081 10.8395 8.5178 10.2215 7.98802 9.42865C7.45823 8.63577 7.17546 7.70359 7.17546 6.75C7.17546 5.47128 7.68343 4.24493 8.58762 3.34074C9.49182 2.43655 10.7182 1.92857 11.9969 1.92857ZM23.4719 23.4611C22.1605 18.7361 17.4451 15.4286 11.9969 15.4286C6.54867 15.4286 1.83331 18.7361 0.521885 23.4611C0.415429 23.8527 0.400945 24.2636 0.479564 24.6617C0.558184 25.0598 0.727778 25.4344 0.9751 25.7561C1.28545 26.1483 1.68141 26.4643 2.13268 26.6799C2.58395 26.8955 3.07857 27.005 3.57867 27H20.4151C20.9152 27.005 21.4098 26.8955 21.8611 26.6799C22.3124 26.4643 22.7083 26.1483 23.0187 25.7561C23.266 25.4344 23.4356 25.0598 23.5142 24.6617C23.5928 24.2636 23.5783 23.8527 23.4719 23.4611ZM21.4758 24.5893C21.3476 24.7454 21.1854 24.87 21.0015 24.9536C20.8176 25.0372 20.617 25.0775 20.4151 25.0714H3.57867C3.37677 25.0775 3.17617 25.0372 2.99229 24.9536C2.8084 24.87 2.64614 24.7454 2.51796 24.5893C2.44263 24.5094 2.38824 24.4121 2.35964 24.3061C2.33104 24.2001 2.32911 24.0887 2.35403 23.9818C3.46296 20.0764 7.41653 17.3571 11.9969 17.3571C16.5772 17.3571 20.5308 20.0764 21.6397 23.9818C21.6684 24.0885 21.6683 24.2009 21.6395 24.3076C21.6108 24.4143 21.5543 24.5115 21.4758 24.5893Z" fill="#411F99"/>
</svg>
