<svg width="31" height="31" viewBox="0 0 31 31" fill="none" xmlns="http://www.w3.org/2000/svg">
<circle cx="15.5" cy="15.5" r="15.5" fill="#76D9DE"/>
<path d="M9.82308 15.9863C9.44896 15.9133 9.0859 16.1574 9.0129 16.5315C8.9399 16.9057 9.18406 17.2687 9.55818 17.3417C9.96797 17.4225 10.4632 17.827 10.964 18.3944C11.6234 19.1418 12.2539 20.1475 12.73 21.1142L12.7284 21.115C12.8968 21.4573 13.3115 21.5983 13.6539 21.4299C13.7802 21.3677 13.8792 21.272 13.9453 21.1587C15.0367 19.3871 16.2912 17.6699 17.7385 16.0203C19.1951 14.3598 20.8536 12.7575 22.7455 11.2239C23.0409 10.9839 23.0856 10.5498 22.8456 10.2545C22.6056 9.95915 22.1715 9.91435 21.8762 10.1544C19.924 11.7366 18.2099 13.3931 16.7016 15.1128C15.465 16.5224 14.3692 17.9697 13.3962 19.4484C12.9764 18.7373 12.4958 18.0493 11.9954 17.4819C11.306 16.701 10.5558 16.1309 9.82308 15.9863Z" fill="black"/>
</svg>
