<svg width="18" height="16" viewBox="0 0 18 16" fill="none" xmlns="http://www.w3.org/2000/svg">
<path d="M1.05825 8.05209C0.577236 7.95824 0.110446 8.27216 0.0165886 8.75317C-0.0772669 9.23418 0.236652 9.70097 0.717661 9.79482C1.24453 9.89863 1.88126 10.4187 2.52509 11.1483C3.37299 12.1092 4.18357 13.4022 4.79576 14.6451L4.79363 14.6462C5.01013 15.0863 5.5434 15.2676 5.98353 15.0511C6.146 14.9711 6.27327 14.8481 6.35824 14.7023C7.76145 12.4246 9.37444 10.2168 11.2352 8.09582C13.108 5.96096 15.2404 3.90076 17.6728 1.92907C18.0525 1.62048 18.1101 1.06232 17.8015 0.682634C17.4929 0.302944 16.9348 0.245351 16.5551 0.553938C14.0452 2.58819 11.8413 4.71808 9.90202 6.92901C8.31216 8.74142 6.90326 10.6022 5.65221 12.5035C5.11254 11.5891 4.49466 10.7046 3.85118 9.97504C2.96488 8.97107 2.00035 8.23803 1.05825 8.05209Z" fill="#1C854C"/>
</svg>
