<svg width="26" height="26" viewBox="0 0 26 26" fill="none" xmlns="http://www.w3.org/2000/svg">
<path fill-rule="evenodd" clip-rule="evenodd" d="M24.2667 13C24.2667 19.2224 19.2224 24.2667 13 24.2667C6.77759 24.2667 1.73333 19.2224 1.73333 13C1.73333 6.77759 6.77759 1.73333 13 1.73333C19.2224 1.73333 24.2667 6.77759 24.2667 13ZM26 13C26 20.1797 20.1797 26 13 26C5.8203 26 0 20.1797 0 13C0 5.8203 5.8203 0 13 0C20.1797 0 26 5.8203 26 13ZM12.0067 14.4473C11.8421 14.9015 11.7532 15.5203 11.7401 16.3036H13.5668C13.5668 15.303 13.807 14.5361 14.2876 14.0029L15.3639 12.9365C16.4303 11.8175 16.9635 10.6819 16.9635 9.52995C16.9635 8.36481 16.6146 7.44981 15.9168 6.78493C15.2256 6.1135 14.258 5.77778 13.0138 5.77778C11.8158 5.77778 10.8415 6.10691 10.0911 6.7652C9.34723 7.41688 8.96873 8.27595 8.95556 9.34235H10.7823C10.7823 8.74331 10.9863 8.26606 11.3945 7.91059C11.8026 7.55511 12.3424 7.37738 13.0138 7.37738C13.705 7.37738 14.2316 7.57487 14.5937 7.96984C14.9557 8.35822 15.1368 8.89801 15.1368 9.5892C15.1368 10.3067 14.8603 10.9782 14.3073 11.6035L13.0138 12.9365C12.507 13.4895 12.1712 13.9931 12.0067 14.4473ZM11.9277 18.6931C11.7499 18.8906 11.6611 19.1375 11.6611 19.4337C11.6611 19.7299 11.7499 19.9768 11.9277 20.1743C12.112 20.3652 12.3819 20.4606 12.7373 20.4606C13.0928 20.4606 13.3627 20.3652 13.547 20.1743C13.7314 19.9768 13.8235 19.7299 13.8235 19.4337C13.8235 19.1375 13.7314 18.8906 13.547 18.6931C13.3627 18.4891 13.0928 18.3871 12.7373 18.3871C12.3819 18.3871 12.112 18.4891 11.9277 18.6931Z" fill="#411F99"/>
</svg>
